<svg width="50" height="50" viewBox="0 0 50 50" fill="none" xmlns="http://www.w3.org/2000/svg">
<rect opacity="0.1" width="50" height="50" fill="#FF694B"/>
<path d="M27 29.0897C27 30.7446 26.23 32.2406 25 33.2597C23.94 34.1573 22.54 34.6996 21 34.6996C17.69 34.6996 15 32.1845 15 29.0897C15 26.5092 16.88 24.3213 19.42 23.6761C20.11 25.303 21.59 26.5559 23.42 27.0234C23.92 27.1543 24.45 27.2197 25 27.2197C25.55 27.2197 26.08 27.1543 26.58 27.0234C26.85 27.6592 27 28.3604 27 29.0897Z" stroke="#FF694B" stroke-width="1.5" stroke-linecap="round" stroke-linejoin="round"/>
<path d="M31 21.6099C31 22.3392 30.85 23.0404 30.58 23.6762C29.89 25.3031 28.41 26.556 26.58 27.0235C26.08 27.1544 25.55 27.2198 25 27.2198C24.45 27.2198 23.92 27.1544 23.42 27.0235C21.59 26.556 20.11 25.3031 19.42 23.6762C19.15 23.0404 19 22.3392 19 21.6099C19 18.5151 21.69 16 25 16C28.31 16 31 18.5151 31 21.6099Z" stroke="#FF694B" stroke-width="1.5" stroke-linecap="round" stroke-linejoin="round"/>
<path d="M35 29.0897C35 32.1845 32.31 34.6996 29 34.6996C27.46 34.6996 26.06 34.1573 25 33.2597C26.23 32.2406 27 30.7446 27 29.0897C27 28.3604 26.85 27.6592 26.58 27.0234C28.41 26.5559 29.89 25.303 30.58 23.6761C33.12 24.3213 35 26.5092 35 29.0897Z" stroke="#FF694B" stroke-width="1.5" stroke-linecap="round" stroke-linejoin="round"/>
</svg>
